# xmcd
#
# Track frame offsets: 
#        150
#        12811
#        26449
#        38005
#        52197
#        77015
#        89585
#        102909
#        115839
#        128399
#        142820
#        167946
#        181651
#        195092
#        202023
#        213730
#        230067
#        244882
#        257632
#
# Disc length: 3585 seconds
#
# Revision: 1
# Processed by: cddbd v1.5.2PL0 Copyright (c) Steve Scherf et al.
# Submitted via: ExactAudioCopy v0.99pb3
#
DISCID=fb0dff13
DTITLE=Duke Ellington - Duke Ellington - Vol. 13 ''Jam-A-Ditty'' 1946-
DTITLE=47
DYEAR=2007
DGENRE=Jazz
TTITLE0=Diminuendo In Blue
TTITLE1=Magenta Haze
TTITLE2=Blue Skies (Trumpet No End)
TTITLE3=Sultry Sunset
TTITLE4=Happy-Go-Lucky Local
TTITLE5=The Beautiful Indians, Part 1: Hiawatha
TTITLE6=The Beautiful Indians, Part 2: Minnehaha
TTITLE7=Flippant Flurry
TTITLE8=Golden Feather
TTITLE9=Tulip Or Tunip
TTITLE10=Overture To A Jam Session
TTITLE11=It Shouldn't Happen To A Dream
TTITLE12=Jam-A-Ditty (Concerto For 4 Jazz Horns)
TTITLE13=Who Struck John?
TTITLE14=How High The Moon
TTITLE15=Frustration
TTITLE16=Blue Lou
TTITLE17=Far Away Blues
TTITLE18=Park At 106th
EXTD=
EXTT0=
EXTT1=
EXTT2=
EXTT3=
EXTT4=
EXTT5=
EXTT6=
EXTT7=
EXTT8=
EXTT9=
EXTT10=
EXTT11=
EXTT12=
EXTT13=
EXTT14=
EXTT15=
EXTT16=
EXTT17=
EXTT18=
PLAYORDER=
